<svg width="64" height="64" viewBox="0 0 64 64" fill="none" xmlns="http://www.w3.org/2000/svg">
<defs>
  <linearGradient id="logo-gradient" x1="32" y1="4" x2="32" y2="60" gradientUnits="userSpaceOnUse">
    <stop stop-color="#2EE1B5"/>
    <stop offset="1" stop-color="#0077B6"/>
  </linearGradient>
</defs>
<path d="M26.6,4.5C26.6,4.5 40.4,4.5 40.4,4.5C40.4,4.5 40.4,12.5 40.4,12.5C40.4,12.5 33,12.5 33,12.5C33,12.5 33,23.5 33,23.5C40,23.5 40,23.5 40,23.5C40,23.5 40,31.5 40,31.5C40,31.5 33,31.5 33,31.5C33,31.5 33,40.5 33,40.5C33,40.5 33,49.5 33,49.5C33,55.5 27.5,59.5 22,59.5C16.5,59.5 12,55.5 12,49.5C12,43.5 16.5,39.5 22,39.5C25.5,39.5 26.5,41.5 26.5,43.5C26.5,43.5 26.5,4.5 26.5,4.5Z M26.5,49.5C26.5,49.5 26.5,46.5 26.5,46.5C26.5,44.5 25.5,42.5 22,42.5C18.5,42.5 15,45.5 15,49.5C15,53.5 18.5,56.5 22,56.5C25.5,56.5 26.5,53.5 26.5,52.5C26.5,52.5 26.5,49.5 26.5,49.5Z" fill="url(#logo-gradient)"/>
<path d="M42,28.5C42,28.5 42,23.5 42,23.5C42,16.5 48,13.5 52.5,18.5C57,23.5 51,28.5 42,28.5Z" fill="url(#logo-gradient)"/>
</svg>
